<svg width="1200" height="1200" viewBox="0 0 1200 1200" fill="none" xmlns="http://www.w3.org/2000/svg">
  <defs>
    <linearGradient id="bg" x1="0%" y1="0%" x2="0%" y2="100%">
      <stop offset="0%" stop-color="#2D1B4E"/><stop offset="40%" stop-color="#4C1D95"/>
      <stop offset="70%" stop-color="#5B21B6"/><stop offset="100%" stop-color="#7C3AED"/>
    </linearGradient>
    <filter id="glow" x="-50%" y="-50%" width="200%" height="200%"><feGaussianBlur stdDeviation="2"/></filter>
    <filter id="glowBig" x="-100%" y="-100%" width="300%" height="300%"><feGaussianBlur stdDeviation="15"/></filter>
    <radialGradient id="hotspot"><stop offset="0%" stop-color="#F472B6" stop-opacity="0.7"/><stop offset="35%" stop-color="#E02F87" stop-opacity="0.4"/><stop offset="100%" stop-color="#7C3AED" stop-opacity="0"/></radialGradient>
  </defs>
  <rect width="1200" height="1200" fill="url(#bg)"/>
  <g stroke="#7C3AED" stroke-width="0.6" opacity="0.25">
    <line x1="45" y1="34" x2="98" y2="123"/><line x1="98" y1="123" x2="67" y2="234"/><line x1="67" y1="234" x2="134" y2="189"/><line x1="178" y1="67" x2="234" y2="156"/><line x1="234" y1="156" x2="278" y2="98"/><line x1="278" y1="98" x2="345" y2="189"/><line x1="389" y1="112" x2="445" y2="201"/><line x1="445" y1="201" x2="489" y2="134"/><line x1="489" y1="134" x2="556" y2="223"/><line x1="600" y1="56" x2="656" y2="145"/><line x1="656" y1="145" x2="712" y2="89"/><line x1="712" y1="89" x2="778" y2="178"/><line x1="823" y1="78" x2="878" y2="167"/><line x1="878" y1="167" x2="934" y2="112"/><line x1="934" y1="112" x2="1001" y2="201"/><line x1="1045" y1="67" x2="1101" y2="156"/><line x1="1101" y1="156" x2="1156" y2="98"/>
    <line x1="34" y1="289" x2="89" y2="378"/><line x1="89" y1="378" x2="134" y2="312"/><line x1="134" y1="312" x2="201" y2="401"/><line x1="245" y1="267" x2="301" y2="356"/><line x1="301" y1="356" x2="356" y2="289"/><line x1="356" y1="289" x2="423" y2="378"/><line x1="467" y1="312" x2="523" y2="401"/><line x1="523" y1="401" x2="578" y2="334"/><line x1="578" y1="334" x2="645" y2="423"/><line x1="689" y1="278" x2="745" y2="367"/><line x1="745" y1="367" x2="801" y2="301"/><line x1="801" y1="301" x2="867" y2="389"/><line x1="912" y1="323" x2="967" y2="412"/><line x1="967" y1="412" x2="1023" y2="345"/><line x1="1023" y1="345" x2="1089" y2="434"/><line x1="1134" y1="289" x2="1178" y2="378"/>
    <line x1="56" y1="512" x2="112" y2="601"/><line x1="112" y1="601" x2="156" y2="534"/><line x1="156" y1="534" x2="223" y2="623"/><line x1="267" y1="489" x2="323" y2="578"/><line x1="323" y1="578" x2="378" y2="512"/><line x1="378" y1="512" x2="445" y2="601"/><line x1="489" y1="534" x2="545" y2="623"/><line x1="545" y1="623" x2="601" y2="556"/><line x1="601" y1="556" x2="667" y2="645"/><line x1="712" y1="501" x2="767" y2="589"/><line x1="767" y1="589" x2="823" y2="523"/><line x1="823" y1="523" x2="889" y2="612"/><line x1="934" y1="545" x2="989" y2="634"/><line x1="989" y1="634" x2="1045" y2="567"/><line x1="1045" y1="567" x2="1112" y2="656"/><line x1="1156" y1="512" x2="1178" y2="601"/>
    <line x1="45" y1="734" x2="101" y2="823"/><line x1="101" y1="823" x2="145" y2="756"/><line x1="145" y1="756" x2="212" y2="845"/><line x1="256" y1="712" x2="312" y2="801"/><line x1="312" y1="801" x2="367" y2="734"/><line x1="367" y1="734" x2="434" y2="823"/><line x1="478" y1="756" x2="534" y2="845"/><line x1="534" y1="845" x2="589" y2="778"/><line x1="589" y1="778" x2="656" y2="867"/><line x1="701" y1="723" x2="756" y2="812"/><line x1="756" y1="812" x2="812" y2="745"/><line x1="812" y1="745" x2="878" y2="834"/><line x1="923" y1="767" x2="978" y2="856"/><line x1="978" y1="856" x2="1034" y2="789"/><line x1="1034" y1="789" x2="1101" y2="878"/><line x1="1145" y1="734" x2="1178" y2="823"/>
    <line x1="67" y1="956" x2="123" y2="1045"/><line x1="123" y1="1045" x2="167" y2="978"/><line x1="167" y1="978" x2="234" y2="1067"/><line x1="278" y1="934" x2="334" y2="1023"/><line x1="334" y1="1023" x2="389" y2="956"/><line x1="389" y1="956" x2="456" y2="1045"/><line x1="501" y1="978" x2="556" y2="1067"/><line x1="556" y1="1067" x2="612" y2="1001"/><line x1="612" y1="1001" x2="678" y2="1089"/><line x1="723" y1="945" x2="778" y2="1034"/><line x1="778" y1="1034" x2="834" y2="967"/><line x1="834" y1="967" x2="901" y2="1056"/><line x1="945" y1="989" x2="1001" y2="1078"/><line x1="1001" y1="1078" x2="1056" y2="1012"/><line x1="1056" y1="1012" x2="1123" y2="1101"/><line x1="1167" y1="956" x2="1178" y2="1045"/>
    <line x1="98" y1="123" x2="178" y2="67"/><line x1="234" y1="156" x2="345" y2="189"/><line x1="445" y1="201" x2="556" y2="223"/><line x1="656" y1="145" x2="778" y2="178"/><line x1="878" y1="167" x2="1001" y2="201"/><line x1="89" y1="378" x2="201" y2="401"/><line x1="301" y1="356" x2="423" y2="378"/><line x1="523" y1="401" x2="645" y2="423"/><line x1="745" y1="367" x2="867" y2="389"/><line x1="967" y1="412" x2="1089" y2="434"/><line x1="112" y1="601" x2="223" y2="623"/><line x1="323" y1="578" x2="445" y2="601"/><line x1="545" y1="623" x2="667" y2="645"/><line x1="767" y1="589" x2="889" y2="612"/><line x1="989" y1="634" x2="1112" y2="656"/><line x1="101" y1="823" x2="212" y2="845"/><line x1="312" y1="801" x2="434" y2="823"/><line x1="534" y1="845" x2="656" y2="867"/><line x1="756" y1="812" x2="878" y2="834"/><line x1="978" y1="856" x2="1101" y2="878"/><line x1="123" y1="1045" x2="234" y2="1067"/><line x1="334" y1="1023" x2="456" y2="1045"/><line x1="556" y1="1067" x2="678" y2="1089"/><line x1="778" y1="1034" x2="901" y2="1056"/><line x1="1001" y1="1078" x2="1123" y2="1101"/>
    <line x1="67" y1="234" x2="134" y2="312"/><line x1="134" y1="189" x2="245" y2="267"/><line x1="278" y1="98" x2="356" y2="289"/><line x1="489" y1="134" x2="467" y2="312"/><line x1="712" y1="89" x2="689" y2="278"/><line x1="934" y1="112" x2="912" y2="323"/><line x1="89" y1="378" x2="156" y2="534"/><line x1="301" y1="356" x2="378" y2="512"/><line x1="523" y1="401" x2="601" y2="556"/><line x1="745" y1="367" x2="823" y2="523"/><line x1="967" y1="412" x2="1045" y2="567"/><line x1="112" y1="601" x2="145" y2="756"/><line x1="323" y1="578" x2="367" y2="734"/><line x1="545" y1="623" x2="589" y2="778"/><line x1="767" y1="589" x2="812" y2="745"/><line x1="989" y1="634" x2="1034" y2="789"/><line x1="101" y1="823" x2="167" y2="978"/><line x1="312" y1="801" x2="389" y2="956"/><line x1="534" y1="845" x2="612" y2="1001"/><line x1="756" y1="812" x2="834" y2="967"/><line x1="978" y1="856" x2="1056" y2="1012"/>
  </g>
  <g stroke="#F472B6" stroke-width="1.8" opacity="0.85" filter="url(#glow)">
    <line x1="234" y1="156" x2="301" y2="356"/><line x1="301" y1="356" x2="245" y2="267"/><line x1="245" y1="267" x2="234" y2="156"/><line x1="234" y1="156" x2="345" y2="189"/><line x1="345" y1="189" x2="301" y2="356"/><line x1="301" y1="356" x2="356" y2="289"/><line x1="356" y1="289" x2="345" y2="189"/><line x1="245" y1="267" x2="356" y2="289"/>
    <line x1="745" y1="367" x2="801" y2="301"/><line x1="801" y1="301" x2="867" y2="389"/><line x1="867" y1="389" x2="745" y2="367"/><line x1="689" y1="278" x2="745" y2="367"/><line x1="689" y1="278" x2="801" y2="301"/><line x1="867" y1="389" x2="823" y2="523"/><line x1="823" y1="523" x2="745" y2="367"/>
    <line x1="323" y1="578" x2="378" y2="512"/><line x1="378" y1="512" x2="445" y2="601"/><line x1="445" y1="601" x2="323" y2="578"/><line x1="267" y1="489" x2="323" y2="578"/><line x1="267" y1="489" x2="378" y2="512"/><line x1="445" y1="601" x2="367" y2="734"/><line x1="367" y1="734" x2="323" y2="578"/>
    <line x1="978" y1="856" x2="1034" y2="789"/><line x1="1034" y1="789" x2="1101" y2="878"/><line x1="1101" y1="878" x2="978" y2="856"/><line x1="923" y1="767" x2="978" y2="856"/><line x1="923" y1="767" x2="1034" y2="789"/><line x1="1101" y1="878" x2="1056" y2="1012"/><line x1="1056" y1="1012" x2="978" y2="856"/>
  </g>
  <g fill="#7C3AED" opacity="0.6"><circle cx="45" cy="34" r="2"/><circle cx="67" cy="234" r="2.5"/><circle cx="134" cy="189" r="2"/><circle cx="178" cy="67" r="2.5"/><circle cx="278" cy="98" r="2"/><circle cx="389" cy="112" r="2.5"/><circle cx="445" cy="201" r="2"/><circle cx="489" cy="134" r="2.5"/><circle cx="556" cy="223" r="2"/><circle cx="600" cy="56" r="2.5"/><circle cx="656" cy="145" r="2"/><circle cx="712" cy="89" r="2.5"/><circle cx="778" cy="178" r="2"/><circle cx="823" cy="78" r="2.5"/><circle cx="878" cy="167" r="2"/><circle cx="934" cy="112" r="2.5"/><circle cx="1001" cy="201" r="2"/><circle cx="1045" cy="67" r="2.5"/><circle cx="1101" cy="156" r="2"/><circle cx="1156" cy="98" r="2.5"/><circle cx="34" cy="289" r="2"/><circle cx="134" cy="312" r="2.5"/><circle cx="201" cy="401" r="2"/><circle cx="423" cy="378" r="2.5"/><circle cx="467" cy="312" r="2"/><circle cx="578" cy="334" r="2.5"/><circle cx="645" cy="423" r="2"/><circle cx="912" cy="323" r="2.5"/><circle cx="1023" cy="345" r="2"/><circle cx="1089" cy="434" r="2.5"/><circle cx="1134" cy="289" r="2"/><circle cx="1178" cy="378" r="2.5"/><circle cx="56" cy="512" r="2"/><circle cx="156" cy="534" r="2.5"/><circle cx="223" cy="623" r="2"/><circle cx="489" cy="534" r="2.5"/><circle cx="601" cy="556" r="2"/><circle cx="667" cy="645" r="2.5"/><circle cx="712" cy="501" r="2"/><circle cx="889" cy="612" r="2.5"/><circle cx="934" cy="545" r="2"/><circle cx="1112" cy="656" r="2.5"/><circle cx="1156" cy="512" r="2"/><circle cx="1178" cy="601" r="2.5"/><circle cx="45" cy="734" r="2"/><circle cx="145" cy="756" r="2.5"/><circle cx="212" cy="845" r="2"/><circle cx="256" cy="712" r="2.5"/><circle cx="434" cy="823" r="2"/><circle cx="478" cy="756" r="2.5"/><circle cx="656" cy="867" r="2"/><circle cx="701" cy="723" r="2.5"/><circle cx="878" cy="834" r="2"/><circle cx="1145" cy="734" r="2.5"/><circle cx="1178" cy="823" r="2"/><circle cx="67" cy="956" r="2.5"/><circle cx="167" cy="978" r="2"/><circle cx="234" cy="1067" r="2.5"/><circle cx="278" cy="934" r="2"/><circle cx="456" cy="1045" r="2.5"/><circle cx="501" cy="978" r="2"/><circle cx="678" cy="1089" r="2.5"/><circle cx="723" cy="945" r="2"/><circle cx="901" cy="1056" r="2.5"/><circle cx="945" cy="989" r="2"/><circle cx="1123" cy="1101" r="2.5"/><circle cx="1167" cy="956" r="2"/><circle cx="1178" cy="1045" r="2.5"/></g>
  <g filter="url(#glowBig)"><circle cx="300" cy="280" r="90" fill="url(#hotspot)"/><circle cx="800" cy="380" r="100" fill="url(#hotspot)"/><circle cx="380" cy="580" r="85" fill="url(#hotspot)"/><circle cx="1020" cy="850" r="95" fill="url(#hotspot)"/></g>
  <g filter="url(#glow)"><circle cx="234" cy="156" r="4" fill="#F472B6"/><circle cx="234" cy="156" r="2" fill="white" opacity="0.7"/><circle cx="245" cy="267" r="4.5" fill="#E02F87"/><circle cx="245" cy="267" r="2" fill="white" opacity="0.7"/><circle cx="301" cy="356" r="5" fill="#F472B6"/><circle cx="301" cy="356" r="2.5" fill="white" opacity="0.8"/><circle cx="345" cy="189" r="4" fill="#E02F87"/><circle cx="345" cy="189" r="2" fill="white" opacity="0.7"/><circle cx="356" cy="289" r="4.5" fill="#F472B6"/><circle cx="356" cy="289" r="2" fill="white" opacity="0.7"/><circle cx="689" cy="278" r="4" fill="#F472B6"/><circle cx="689" cy="278" r="2" fill="white" opacity="0.7"/><circle cx="745" cy="367" r="5" fill="#E02F87"/><circle cx="745" cy="367" r="2.5" fill="white" opacity="0.8"/><circle cx="801" cy="301" r="4.5" fill="#F472B6"/><circle cx="801" cy="301" r="2" fill="white" opacity="0.7"/><circle cx="867" cy="389" r="4" fill="#E02F87"/><circle cx="867" cy="389" r="2" fill="white" opacity="0.7"/><circle cx="823" cy="523" r="4.5" fill="#F472B6"/><circle cx="823" cy="523" r="2" fill="white" opacity="0.7"/><circle cx="267" cy="489" r="4" fill="#F472B6"/><circle cx="267" cy="489" r="2" fill="white" opacity="0.7"/><circle cx="323" cy="578" r="5" fill="#E02F87"/><circle cx="323" cy="578" r="2.5" fill="white" opacity="0.8"/><circle cx="378" cy="512" r="4.5" fill="#F472B6"/><circle cx="378" cy="512" r="2" fill="white" opacity="0.7"/><circle cx="445" cy="601" r="4" fill="#E02F87"/><circle cx="445" cy="601" r="2" fill="white" opacity="0.7"/><circle cx="367" cy="734" r="4.5" fill="#F472B6"/><circle cx="367" cy="734" r="2" fill="white" opacity="0.7"/><circle cx="923" cy="767" r="4" fill="#F472B6"/><circle cx="923" cy="767" r="2" fill="white" opacity="0.7"/><circle cx="978" cy="856" r="5" fill="#E02F87"/><circle cx="978" cy="856" r="2.5" fill="white" opacity="0.8"/><circle cx="1034" cy="789" r="4.5" fill="#F472B6"/><circle cx="1034" cy="789" r="2" fill="white" opacity="0.7"/><circle cx="1101" cy="878" r="4" fill="#E02F87"/><circle cx="1101" cy="878" r="2" fill="white" opacity="0.7"/><circle cx="1056" cy="1012" r="4.5" fill="#F472B6"/><circle cx="1056" cy="1012" r="2" fill="white" opacity="0.7"/></g>
  <g fill="#9D5CFF" opacity="0.5"><circle cx="112" cy="78" r="1.5"/><circle cx="167" cy="445" r="1.5"/><circle cx="223" cy="556" r="1.5"/><circle cx="412" cy="267" r="1.5"/><circle cx="467" cy="467" r="1.5"/><circle cx="534" cy="112" r="1.5"/><circle cx="589" cy="589" r="1.5"/><circle cx="645" cy="234" r="1.5"/><circle cx="723" cy="623" r="1.5"/><circle cx="856" cy="267" r="1.5"/><circle cx="967" cy="201" r="1.5"/><circle cx="1034" cy="434" r="1.5"/><circle cx="1089" cy="567" r="1.5"/><circle cx="1134" cy="467" r="1.5"/><circle cx="189" cy="823" r="1.5"/><circle cx="534" cy="934" r="1.5"/><circle cx="812" cy="1001" r="1.5"/><circle cx="1089" cy="1089" r="1.5"/></g>
</svg>