<svg width="1500" height="500" viewBox="0 0 1500 500" fill="none" xmlns="http://www.w3.org/2000/svg">
  <defs>
    <linearGradient id="bg" x1="0%" y1="0%" x2="0%" y2="100%">
      <stop offset="0%" stop-color="#2D1B4E"/><stop offset="40%" stop-color="#4C1D95"/>
      <stop offset="70%" stop-color="#5B21B6"/><stop offset="100%" stop-color="#7C3AED"/>
    </linearGradient>
    <filter id="glow" x="-50%" y="-50%" width="200%" height="200%"><feGaussianBlur stdDeviation="2"/></filter>
    <filter id="glowBig" x="-100%" y="-100%" width="300%" height="300%"><feGaussianBlur stdDeviation="12"/></filter>
    <radialGradient id="hotspot"><stop offset="0%" stop-color="#F472B6" stop-opacity="0.7"/><stop offset="35%" stop-color="#E02F87" stop-opacity="0.4"/><stop offset="100%" stop-color="#7C3AED" stop-opacity="0"/></radialGradient>
  </defs>
  <rect width="1500" height="500" fill="url(#bg)"/>
  <g stroke="#7C3AED" stroke-width="0.6" opacity="0.25">
    <line x1="47" y1="23" x2="112" y2="89"/><line x1="112" y1="89" x2="78" y2="167"/><line x1="78" y1="167" x2="156" y2="134"/><line x1="203" y1="45" x2="267" y2="112"/><line x1="267" y1="112" x2="312" y2="67"/><line x1="312" y1="67" x2="389" y2="134"/><line x1="423" y1="78" x2="478" y2="145"/><line x1="478" y1="145" x2="534" y2="89"/><line x1="534" y1="89" x2="612" y2="156"/><line x1="667" y1="34" x2="723" y2="112"/><line x1="723" y1="112" x2="789" y2="67"/><line x1="789" y1="67" x2="856" y2="145"/><line x1="912" y1="56" x2="978" y2="123"/><line x1="978" y1="123" x2="1034" y2="78"/><line x1="1034" y1="78" x2="1112" y2="156"/><line x1="1167" y1="45" x2="1234" y2="112"/><line x1="1234" y1="112" x2="1289" y2="67"/><line x1="1289" y1="67" x2="1367" y2="145"/><line x1="1423" y1="78" x2="1478" y2="134"/><line x1="34" y1="189" x2="89" y2="256"/><line x1="89" y1="256" x2="145" y2="201"/><line x1="145" y1="201" x2="212" y2="278"/><line x1="278" y1="167" x2="334" y2="234"/><line x1="334" y1="234" x2="389" y2="189"/><line x1="389" y1="189" x2="456" y2="267"/><line x1="512" y1="201" x2="578" y2="267"/><line x1="578" y1="267" x2="634" y2="212"/><line x1="634" y1="212" x2="701" y2="289"/><line x1="756" y1="178" x2="823" y2="245"/><line x1="823" y1="245" x2="878" y2="189"/><line x1="878" y1="189" x2="945" y2="267"/><line x1="1001" y1="212" x2="1067" y2="278"/><line x1="1067" y1="278" x2="1123" y2="223"/><line x1="1123" y1="223" x2="1189" y2="301"/><line x1="1245" y1="189" x2="1312" y2="256"/><line x1="1312" y1="256" x2="1367" y2="201"/><line x1="1367" y1="201" x2="1434" y2="278"/><line x1="56" y1="334" x2="112" y2="401"/><line x1="112" y1="401" x2="167" y2="345"/><line x1="167" y1="345" x2="234" y2="423"/><line x1="289" y1="312" x2="356" y2="378"/><line x1="356" y1="378" x2="412" y2="323"/><line x1="412" y1="323" x2="478" y2="401"/><line x1="534" y1="345" x2="601" y2="412"/><line x1="601" y1="412" x2="656" y2="356"/><line x1="656" y1="356" x2="723" y2="434"/><line x1="778" y1="323" x2="845" y2="389"/><line x1="845" y1="389" x2="901" y2="334"/><line x1="901" y1="334" x2="967" y2="412"/><line x1="1023" y1="356" x2="1089" y2="423"/><line x1="1089" y1="423" x2="1145" y2="367"/><line x1="1145" y1="367" x2="1212" y2="445"/><line x1="1267" y1="334" x2="1334" y2="401"/><line x1="1334" y1="401" x2="1389" y2="345"/><line x1="1389" y1="345" x2="1456" y2="423"/><line x1="112" y1="89" x2="203" y2="45"/><line x1="267" y1="112" x2="389" y2="134"/><line x1="478" y1="145" x2="612" y2="156"/><line x1="723" y1="112" x2="856" y2="145"/><line x1="978" y1="123" x2="1112" y2="156"/><line x1="1234" y1="112" x2="1367" y2="145"/><line x1="89" y1="256" x2="212" y2="278"/><line x1="334" y1="234" x2="456" y2="267"/><line x1="578" y1="267" x2="701" y2="289"/><line x1="823" y1="245" x2="945" y2="267"/><line x1="1067" y1="278" x2="1189" y2="301"/><line x1="1312" y1="256" x2="1434" y2="278"/><line x1="112" y1="401" x2="234" y2="423"/><line x1="356" y1="378" x2="478" y2="401"/><line x1="601" y1="412" x2="723" y2="434"/><line x1="845" y1="389" x2="967" y2="412"/><line x1="1089" y1="423" x2="1212" y2="445"/><line x1="1334" y1="401" x2="1456" y2="423"/><line x1="78" y1="167" x2="145" y2="201"/><line x1="156" y1="134" x2="278" y2="167"/><line x1="312" y1="67" x2="389" y2="189"/><line x1="534" y1="89" x2="512" y2="201"/><line x1="789" y1="67" x2="756" y2="178"/><line x1="1034" y1="78" x2="1001" y2="212"/><line x1="1289" y1="67" x2="1245" y2="189"/><line x1="89" y1="256" x2="167" y2="345"/><line x1="334" y1="234" x2="412" y2="323"/><line x1="578" y1="267" x2="656" y2="356"/><line x1="823" y1="245" x2="901" y2="334"/><line x1="1067" y1="278" x2="1145" y2="367"/><line x1="1312" y1="256" x2="1389" y2="345"/>
  </g>
  <g stroke="#F472B6" stroke-width="1.8" opacity="0.85" filter="url(#glow)">
    <line x1="267" y1="112" x2="334" y2="234"/><line x1="334" y1="234" x2="278" y2="167"/><line x1="278" y1="167" x2="267" y2="112"/><line x1="267" y1="112" x2="389" y2="134"/><line x1="389" y1="134" x2="334" y2="234"/><line x1="334" y1="234" x2="389" y2="189"/><line x1="389" y1="189" x2="389" y2="134"/><line x1="278" y1="167" x2="389" y2="189"/>
    <line x1="823" y1="245" x2="878" y2="189"/><line x1="878" y1="189" x2="945" y2="267"/><line x1="945" y1="267" x2="823" y2="245"/><line x1="756" y1="178" x2="823" y2="245"/><line x1="756" y1="178" x2="878" y2="189"/><line x1="945" y1="267" x2="901" y2="334"/><line x1="901" y1="334" x2="823" y2="245"/>
    <line x1="1234" y1="112" x2="1312" y2="256"/><line x1="1312" y1="256" x2="1245" y2="189"/><line x1="1245" y1="189" x2="1234" y2="112"/><line x1="1289" y1="67" x2="1234" y2="112"/><line x1="1289" y1="67" x2="1367" y2="145"/><line x1="1367" y1="145" x2="1312" y2="256"/><line x1="1245" y1="189" x2="1367" y2="201"/>
  </g>
  <g fill="#7C3AED" opacity="0.6"><circle cx="47" cy="23" r="2"/><circle cx="78" cy="167" r="2.5"/><circle cx="156" cy="134" r="2"/><circle cx="203" cy="45" r="2.5"/><circle cx="312" cy="67" r="2"/><circle cx="423" cy="78" r="2.5"/><circle cx="478" cy="145" r="2"/><circle cx="534" cy="89" r="2.5"/><circle cx="612" cy="156" r="2"/><circle cx="667" cy="34" r="2.5"/><circle cx="723" cy="112" r="2"/><circle cx="789" cy="67" r="2.5"/><circle cx="856" cy="145" r="2"/><circle cx="912" cy="56" r="2.5"/><circle cx="978" cy="123" r="2"/><circle cx="1034" cy="78" r="2.5"/><circle cx="1112" cy="156" r="2"/><circle cx="1167" cy="45" r="2.5"/><circle cx="1423" cy="78" r="2"/><circle cx="1478" cy="134" r="2.5"/><circle cx="34" cy="189" r="2"/><circle cx="145" cy="201" r="2.5"/><circle cx="212" cy="278" r="2"/><circle cx="456" cy="267" r="2.5"/><circle cx="512" cy="201" r="2"/><circle cx="634" cy="212" r="2.5"/><circle cx="701" cy="289" r="2"/><circle cx="1001" cy="212" r="2.5"/><circle cx="1123" cy="223" r="2"/><circle cx="1189" cy="301" r="2.5"/><circle cx="1367" cy="201" r="2"/><circle cx="1434" cy="278" r="2.5"/><circle cx="56" cy="334" r="2"/><circle cx="112" cy="401" r="2.5"/><circle cx="167" cy="345" r="2"/><circle cx="234" cy="423" r="2.5"/><circle cx="289" cy="312" r="2"/><circle cx="356" cy="378" r="2.5"/><circle cx="412" cy="323" r="2"/><circle cx="478" cy="401" r="2.5"/><circle cx="534" cy="345" r="2"/><circle cx="601" cy="412" r="2.5"/><circle cx="656" cy="356" r="2"/><circle cx="723" cy="434" r="2.5"/><circle cx="778" cy="323" r="2"/><circle cx="845" cy="389" r="2.5"/><circle cx="967" cy="412" r="2"/><circle cx="1023" cy="356" r="2.5"/><circle cx="1089" cy="423" r="2"/><circle cx="1212" cy="445" r="2.5"/><circle cx="1267" cy="334" r="2"/><circle cx="1334" cy="401" r="2.5"/><circle cx="1456" cy="423" r="2"/></g>
  <g filter="url(#glowBig)"><circle cx="330" cy="180" r="80" fill="url(#hotspot)"/><circle cx="870" cy="250" r="90" fill="url(#hotspot)"/><circle cx="1280" cy="170" r="75" fill="url(#hotspot)"/></g>
  <g filter="url(#glow)"><circle cx="267" cy="112" r="4" fill="#F472B6"/><circle cx="267" cy="112" r="2" fill="white" opacity="0.7"/><circle cx="278" cy="167" r="4.5" fill="#E02F87"/><circle cx="278" cy="167" r="2" fill="white" opacity="0.7"/><circle cx="334" cy="234" r="5" fill="#F472B6"/><circle cx="334" cy="234" r="2.5" fill="white" opacity="0.8"/><circle cx="389" cy="134" r="4" fill="#E02F87"/><circle cx="389" cy="134" r="2" fill="white" opacity="0.7"/><circle cx="389" cy="189" r="4.5" fill="#F472B6"/><circle cx="389" cy="189" r="2" fill="white" opacity="0.7"/><circle cx="756" cy="178" r="4" fill="#F472B6"/><circle cx="756" cy="178" r="2" fill="white" opacity="0.7"/><circle cx="823" cy="245" r="5" fill="#E02F87"/><circle cx="823" cy="245" r="2.5" fill="white" opacity="0.8"/><circle cx="878" cy="189" r="4.5" fill="#F472B6"/><circle cx="878" cy="189" r="2" fill="white" opacity="0.7"/><circle cx="945" cy="267" r="4" fill="#E02F87"/><circle cx="945" cy="267" r="2" fill="white" opacity="0.7"/><circle cx="901" cy="334" r="4.5" fill="#F472B6"/><circle cx="901" cy="334" r="2" fill="white" opacity="0.7"/><circle cx="1234" cy="112" r="4.5" fill="#F472B6"/><circle cx="1234" cy="112" r="2" fill="white" opacity="0.7"/><circle cx="1245" cy="189" r="5" fill="#E02F87"/><circle cx="1245" cy="189" r="2.5" fill="white" opacity="0.8"/><circle cx="1289" cy="67" r="4" fill="#F472B6"/><circle cx="1289" cy="67" r="2" fill="white" opacity="0.7"/><circle cx="1312" cy="256" r="4.5" fill="#E02F87"/><circle cx="1312" cy="256" r="2" fill="white" opacity="0.7"/><circle cx="1367" cy="145" r="4" fill="#F472B6"/><circle cx="1367" cy="145" r="2" fill="white" opacity="0.7"/><circle cx="1367" cy="201" r="4" fill="#E02F87"/><circle cx="1367" cy="201" r="2" fill="white" opacity="0.7"/></g>
  <g fill="#9D5CFF" opacity="0.5"><circle cx="127" cy="52" r="1.5"/><circle cx="183" cy="298" r="1.5"/><circle cx="241" cy="367" r="1.5"/><circle cx="447" cy="178" r="1.5"/><circle cx="503" cy="312" r="1.5"/><circle cx="589" cy="78" r="1.5"/><circle cx="645" cy="389" r="1.5"/><circle cx="712" cy="156" r="1.5"/><circle cx="801" cy="412" r="1.5"/><circle cx="934" cy="178" r="1.5"/><circle cx="1056" cy="134" r="1.5"/><circle cx="1145" cy="289" r="1.5"/><circle cx="1201" cy="378" r="1.5"/><circle cx="1378" cy="312" r="1.5"/><circle cx="1412" cy="189" r="1.5"/></g>
  <!-- Mantra text right-aligned, logo below "headaches." -->
  <text x="1420" y="220" font-family="Inter, system-ui, sans-serif" font-size="32" font-weight="600" fill="white" text-anchor="end">One runtime, any model, no infra headaches.</text>
  <g transform="translate(1310, 240)"><g transform="scale(0.35)"><path d="M35.093 81.065 L34.259 80.880 L30.463 78.472 L29.722 78.287 L27.685 76.898 L8.611 66.157 L8.287 65.926 L8.194 64.815 L8.194 35.000 L34.444 19.583 L35.000 19.583 L37.315 20.880 L61.435 34.722 L61.435 35.093 L60.926 35.417 L35.046 50.370 L35.093 81.065 Z" fill="white"/><path d="M65.185 63.287 L64.861 63.241 L64.676 32.593 L38.194 17.315 L38.333 16.991 L45.185 12.917 L48.148 11.435 L58.333 5.231 L59.074 5.046 L64.537 1.806 L65.463 1.991 L70.556 4.861 L74.352 7.269 L75.093 7.454 L87.778 14.954 L90.741 16.435 L91.528 17.222 L91.528 47.870 L65.185 63.287 Z" fill="white"/><path d="M65.185 98.194 L38.380 82.870 L38.333 52.083 L39.167 52.269 L65.093 67.176 L82.685 56.713 L83.426 56.528 L84.259 55.787 L85.000 55.602 L91.019 51.898 L91.528 51.852 L91.620 82.778 L65.185 98.194 Z" fill="white"/></g><text x="40" y="30" font-family="Outfit, system-ui, sans-serif" font-size="26" font-weight="900" letter-spacing="-0.03em" fill="white" text-anchor="start">koeo</text></g>
</svg>