<svg width="1200" height="630" viewBox="0 0 1200 630" fill="none" xmlns="http://www.w3.org/2000/svg">
  <defs>
    <linearGradient id="bg" x1="0%" y1="0%" x2="0%" y2="100%">
      <stop offset="0%" stop-color="#2D1B4E"/><stop offset="40%" stop-color="#4C1D95"/>
      <stop offset="70%" stop-color="#5B21B6"/><stop offset="100%" stop-color="#7C3AED"/>
    </linearGradient>
    <filter id="glow" x="-50%" y="-50%" width="200%" height="200%">
      <feGaussianBlur stdDeviation="1.5" result="blur"/><feMerge><feMergeNode in="blur"/><feMergeNode in="SourceGraphic"/></feMerge>
    </filter>
    <filter id="nodeGlow" x="-100%" y="-100%" width="300%" height="300%"><feGaussianBlur stdDeviation="3"/></filter>
    <radialGradient id="hs1" cx="180" cy="180" r="130" gradientUnits="userSpaceOnUse">
      <stop offset="0%" stop-color="#F472B6" stop-opacity="0.4"/><stop offset="50%" stop-color="#E02F87" stop-opacity="0.15"/><stop offset="100%" stop-color="#7C3AED" stop-opacity="0"/>
    </radialGradient>
    <radialGradient id="hs2" cx="600" cy="315" r="150" gradientUnits="userSpaceOnUse">
      <stop offset="0%" stop-color="#F472B6" stop-opacity="0.35"/><stop offset="50%" stop-color="#E02F87" stop-opacity="0.12"/><stop offset="100%" stop-color="#7C3AED" stop-opacity="0"/>
    </radialGradient>
    <radialGradient id="hs3" cx="1020" cy="450" r="130" gradientUnits="userSpaceOnUse">
      <stop offset="0%" stop-color="#F472B6" stop-opacity="0.4"/><stop offset="50%" stop-color="#E02F87" stop-opacity="0.15"/><stop offset="100%" stop-color="#7C3AED" stop-opacity="0"/>
    </radialGradient>
    <linearGradient id="t1" x1="100" y1="130" x2="180" y2="180" gradientUnits="userSpaceOnUse">
      <stop offset="0%" stop-color="#F472B6" stop-opacity="0"/><stop offset="100%" stop-color="#F472B6" stop-opacity="0.8"/>
    </linearGradient>
    <linearGradient id="t2" x1="520" y1="260" x2="600" y2="315" gradientUnits="userSpaceOnUse">
      <stop offset="0%" stop-color="#F472B6" stop-opacity="0"/><stop offset="100%" stop-color="#F472B6" stop-opacity="0.8"/>
    </linearGradient>
    <linearGradient id="t3" x1="940" y1="400" x2="1020" y2="450" gradientUnits="userSpaceOnUse">
      <stop offset="0%" stop-color="#F472B6" stop-opacity="0"/><stop offset="100%" stop-color="#F472B6" stop-opacity="0.8"/>
    </linearGradient>
  </defs>
  <rect width="1200" height="630" fill="url(#bg)"/>
  <circle cx="180" cy="180" r="130" fill="url(#hs1)"/><circle cx="600" cy="315" r="150" fill="url(#hs2)"/><circle cx="1020" cy="450" r="130" fill="url(#hs3)"/>

  <!-- Base network connections -->
  <g stroke="#7C3AED" stroke-width="0.5" opacity="0.2">
    <line x1="40" y1="50" x2="100" y2="130"/><line x1="100" y1="130" x2="180" y2="80"/><line x1="180" y1="80" x2="260" y2="150"/><line x1="260" y1="150" x2="340" y2="100"/>
    <line x1="340" y1="100" x2="420" y2="170"/><line x1="420" y1="170" x2="500" y2="120"/><line x1="500" y1="120" x2="580" y2="190"/><line x1="580" y1="190" x2="660" y2="140"/>
    <line x1="660" y1="140" x2="740" y2="210"/><line x1="740" y1="210" x2="820" y2="160"/><line x1="820" y1="160" x2="900" y2="230"/><line x1="900" y1="230" x2="980" y2="180"/>
    <line x1="980" y1="180" x2="1060" y2="250"/><line x1="1060" y1="250" x2="1140" y2="200"/><line x1="1140" y1="200" x2="1180" y2="240"/>
    <line x1="30" y1="220" x2="110" y2="290"/><line x1="110" y1="290" x2="190" y2="240"/><line x1="190" y1="240" x2="270" y2="310"/><line x1="270" y1="310" x2="350" y2="260"/>
    <line x1="350" y1="260" x2="430" y2="330"/><line x1="430" y1="330" x2="510" y2="280"/><line x1="510" y1="280" x2="590" y2="350"/><line x1="590" y1="350" x2="670" y2="300"/>
    <line x1="670" y1="300" x2="750" y2="370"/><line x1="750" y1="370" x2="830" y2="320"/><line x1="830" y1="320" x2="910" y2="390"/><line x1="910" y1="390" x2="990" y2="340"/>
    <line x1="990" y1="340" x2="1070" y2="410"/><line x1="1070" y1="410" x2="1150" y2="360"/><line x1="1150" y1="360" x2="1190" y2="400"/>
    <line x1="50" y1="390" x2="130" y2="460"/><line x1="130" y1="460" x2="210" y2="410"/><line x1="210" y1="410" x2="290" y2="480"/><line x1="290" y1="480" x2="370" y2="430"/>
    <line x1="370" y1="430" x2="450" y2="500"/><line x1="450" y1="500" x2="530" y2="450"/><line x1="530" y1="450" x2="610" y2="520"/><line x1="610" y1="520" x2="690" y2="470"/>
    <line x1="690" y1="470" x2="770" y2="540"/><line x1="770" y1="540" x2="850" y2="490"/><line x1="850" y1="490" x2="930" y2="560"/><line x1="930" y1="560" x2="1010" y2="510"/>
    <line x1="1010" y1="510" x2="1090" y2="580"/><line x1="1090" y1="580" x2="1170" y2="530"/>
    <line x1="100" y1="130" x2="110" y2="290"/><line x1="180" y1="80" x2="190" y2="240"/><line x1="260" y1="150" x2="270" y2="310"/><line x1="340" y1="100" x2="350" y2="260"/>
    <line x1="420" y1="170" x2="430" y2="330"/><line x1="500" y1="120" x2="510" y2="280"/><line x1="580" y1="190" x2="590" y2="350"/><line x1="660" y1="140" x2="670" y2="300"/>
    <line x1="740" y1="210" x2="750" y2="370"/><line x1="820" y1="160" x2="830" y2="320"/><line x1="900" y1="230" x2="910" y2="390"/><line x1="980" y1="180" x2="990" y2="340"/>
    <line x1="1060" y1="250" x2="1070" y2="410"/><line x1="1140" y1="200" x2="1150" y2="360"/>
    <line x1="110" y1="290" x2="130" y2="460"/><line x1="190" y1="240" x2="210" y2="410"/><line x1="270" y1="310" x2="290" y2="480"/><line x1="350" y1="260" x2="370" y2="430"/>
    <line x1="430" y1="330" x2="450" y2="500"/><line x1="510" y1="280" x2="530" y2="450"/><line x1="590" y1="350" x2="610" y2="520"/><line x1="670" y1="300" x2="690" y2="470"/>
    <line x1="750" y1="370" x2="770" y2="540"/><line x1="830" y1="320" x2="850" y2="490"/><line x1="910" y1="390" x2="930" y2="560"/><line x1="990" y1="340" x2="1010" y2="510"/>
    <line x1="1070" y1="410" x2="1090" y2="580"/><line x1="1150" y1="360" x2="1170" y2="530"/>
  </g>
  <!-- Energized connections -->
  <g stroke="#F472B6" stroke-width="1.5" opacity="0.7" filter="url(#glow)">
    <line x1="100" y1="130" x2="180" y2="180"/><line x1="180" y1="180" x2="260" y2="150"/><line x1="100" y1="130" x2="190" y2="240"/><line x1="180" y1="180" x2="190" y2="240"/>
    <line x1="520" y1="260" x2="600" y2="315"/><line x1="600" y1="315" x2="670" y2="300"/><line x1="520" y1="260" x2="590" y2="350"/><line x1="600" y1="315" x2="590" y2="350"/>
    <line x1="940" y1="400" x2="1020" y2="450"/><line x1="1020" y1="450" x2="1070" y2="410"/><line x1="940" y1="400" x2="1010" y2="510"/><line x1="1020" y1="450" x2="1010" y2="510"/>
  </g>
  <line x1="100" y1="130" x2="180" y2="180" stroke="url(#t1)" stroke-width="2.5" stroke-linecap="round"/>
  <line x1="520" y1="260" x2="600" y2="315" stroke="url(#t2)" stroke-width="2.5" stroke-linecap="round"/>
  <line x1="940" y1="400" x2="1020" y2="450" stroke="url(#t3)" stroke-width="2.5" stroke-linecap="round"/>
  <!-- Base nodes -->
  <g fill="#7C3AED" opacity="0.5">
    <circle cx="40" cy="50" r="2"/><circle cx="180" cy="80" r="2"/><circle cx="340" cy="100" r="2"/><circle cx="500" cy="120" r="2"/><circle cx="660" cy="140" r="2"/>
    <circle cx="820" cy="160" r="2"/><circle cx="980" cy="180" r="2"/><circle cx="1140" cy="200" r="2"/><circle cx="1180" cy="240" r="2"/>
    <circle cx="30" cy="220" r="2"/><circle cx="270" cy="310" r="2"/><circle cx="350" cy="260" r="2"/><circle cx="430" cy="330" r="2"/><circle cx="750" cy="370" r="2"/>
    <circle cx="830" cy="320" r="2"/><circle cx="910" cy="390" r="2"/><circle cx="1150" cy="360" r="2"/><circle cx="1190" cy="400" r="2"/>
    <circle cx="50" cy="390" r="2"/><circle cx="130" cy="460" r="2"/><circle cx="210" cy="410" r="2"/><circle cx="290" cy="480" r="2"/><circle cx="370" cy="430" r="2"/>
    <circle cx="450" cy="500" r="2"/><circle cx="530" cy="450" r="2"/><circle cx="610" cy="520" r="2"/><circle cx="690" cy="470" r="2"/><circle cx="770" cy="540" r="2"/>
    <circle cx="850" cy="490" r="2"/><circle cx="930" cy="560" r="2"/><circle cx="1090" cy="580" r="2"/><circle cx="1170" cy="530" r="2"/>
  </g>
  <!-- Energized nodes -->
  <g filter="url(#nodeGlow)"><circle cx="180" cy="180" r="8" fill="#F472B6" opacity="0.5"/><circle cx="600" cy="315" r="10" fill="#F472B6" opacity="0.45"/><circle cx="1020" cy="450" r="9" fill="#F472B6" opacity="0.5"/></g>
  <g>
    <circle cx="100" cy="130" r="3.5" fill="#F472B6"/><circle cx="100" cy="130" r="1.5" fill="white" opacity="0.8"/>
    <circle cx="180" cy="180" r="4.5" fill="#E02F87"/><circle cx="180" cy="180" r="2" fill="white" opacity="0.9"/>
    <circle cx="260" cy="150" r="3" fill="#F472B6"/><circle cx="260" cy="150" r="1.2" fill="white" opacity="0.7"/>
    <circle cx="190" cy="240" r="3.5" fill="#F472B6"/><circle cx="190" cy="240" r="1.5" fill="white" opacity="0.8"/>
    <circle cx="520" cy="260" r="3.5" fill="#F472B6"/><circle cx="520" cy="260" r="1.5" fill="white" opacity="0.8"/>
    <circle cx="600" cy="315" r="5" fill="#E02F87"/><circle cx="600" cy="315" r="2.2" fill="white" opacity="0.9"/>
    <circle cx="670" cy="300" r="3" fill="#F472B6"/><circle cx="670" cy="300" r="1.2" fill="white" opacity="0.7"/>
    <circle cx="590" cy="350" r="3.5" fill="#F472B6"/><circle cx="590" cy="350" r="1.5" fill="white" opacity="0.8"/>
    <circle cx="940" cy="400" r="3.5" fill="#F472B6"/><circle cx="940" cy="400" r="1.5" fill="white" opacity="0.8"/>
    <circle cx="1020" cy="450" r="5" fill="#E02F87"/><circle cx="1020" cy="450" r="2.2" fill="white" opacity="0.9"/>
    <circle cx="1070" cy="410" r="3" fill="#F472B6"/><circle cx="1070" cy="410" r="1.2" fill="white" opacity="0.7"/>
    <circle cx="1010" cy="510" r="3.5" fill="#F472B6"/><circle cx="1010" cy="510" r="1.5" fill="white" opacity="0.8"/>
  </g>
  <g filter="url(#glow)"><circle cx="180" cy="180" r="3" fill="white"/><circle cx="600" cy="315" r="3.5" fill="white"/><circle cx="1020" cy="450" r="3" fill="white"/></g>
</svg>